<svg width="24" height="24" viewBox="0 0 24 24" fill="none" xmlns="http://www.w3.org/2000/svg">
<mask id="mask0_144_3222" style="mask-type:alpha" maskUnits="userSpaceOnUse" x="0" y="0" width="24" height="24">
<rect width="24" height="24" fill="#D9D9D9"/>
</mask>
<g mask="url(#mask0_144_3222)">
<path d="M2 24V21H22V24H2ZM6 16.4135H7.2365L15.5365 8.12874L14.9078 7.49049L14.2848 6.87699L6 15.177V16.4135ZM4.5 17.9135V14.5385L15.7098 3.34424C15.8546 3.19941 16.019 3.08983 16.203 3.01549C16.3868 2.94116 16.5782 2.90399 16.777 2.90399C16.976 2.90399 17.1687 2.94116 17.355 3.01549C17.5413 3.08983 17.7121 3.20458 17.8673 3.35974L19.0693 4.57699C19.2244 4.72183 19.3366 4.88774 19.4058 5.07474C19.4749 5.26158 19.5095 5.45474 19.5095 5.65424C19.5095 5.84124 19.4744 6.02716 19.4042 6.21199C19.3341 6.39699 19.2224 6.56608 19.0693 6.71924L7.875 17.9135H4.5ZM15.5365 8.12874L14.9078 7.49049L14.2848 6.87699L15.5365 8.12874Z" fill="#0D0D0D"/>
</g>
</svg>
